<svg xmlns="http://www.w3.org/2000/svg" viewBox="0 0 1301.66 196.53">
  <path id="a1" d="M91.27,0.71L0,196H30L90.79,62.36,148.85,196h30.46Z"/>
  <path id="a2" d="M567.53,0L476.26,196h30L567,62.36,625.11,196h30.46Z"/>
  <path id="a3" d="M1213.62,0l-91.27,196h30l60.8-133.67L1271.2,196h30.46Z"/>
  <path id="m" d="M393.63,0.73L328.05,141.08,264.74,0.73,225.91,196H254.7L274.53,84.58l53,111.93,54.6-111.82L400,196h28.55Z"/>
  <path id="n" d="M843.31,0.71V139.76L708.8,0.71V196h27.84V66.9L871.15,196.53V0.71H843.31Z"/>
  <path id="d" d="M1059.43,25.88A81.45,81.45,0,0,0,1028,6.52q-16.12-5.81-44-5.81h-38.7V196h38.22q28.08,0,43.37-5.44,16.36-5.43,31.3-19.35Q1088,143.41,1088,98.37T1059.43,25.88ZM973.18,168.33V28.41c17.61,0,86.73-2.91,86.73,70S990.74,168.33,973.18,168.33Z"/>
</svg>
