<?xml version="1.0" encoding="UTF-8"?>
<svg width="512px" height="512px" viewBox="0 0 512 512" version="1.1" xmlns="http://www.w3.org/2000/svg" xmlns:xlink="http://www.w3.org/1999/xlink">
    <!-- Generator: Sketch 41 (35326) - http://www.bohemiancoding.com/sketch -->
    <title>Gaming Pattern</title>
    <desc>Created with Sketch.</desc>
    <defs></defs>
    <g id="Symbols" stroke="none" stroke-width="1" fill="none" fill-rule="evenodd">
        <g id="Gaming-Pattern" fill="#e4e4e4">
            <path d="M146.249901,406.842463 C152.968684,406.842463 158.63269,404.537798 163.242088,399.9284 C167.851486,395.319002 170.156151,389.654996 170.156151,382.936213 C170.156151,376.061178 169.21866,369.342495 167.343651,362.779963 C162.499876,369.186245 154.765579,373.483077 144.140526,375.670588 C134.765479,377.701848 130.078026,382.858046 130.078026,391.139338 C130.078026,395.51436 131.64051,399.22526 134.765526,402.27215 C137.890541,405.31904 141.718628,406.842463 146.249901,406.842463 L146.249901,406.842463 Z M155.156151,315.201838 C165.156201,323.326878 173.085809,333.209592 178.945213,344.850275 C184.804617,356.490958 187.734276,368.873647 187.734276,381.998713 C187.734276,392.936267 183.828065,402.311174 176.015526,410.123713 C168.202987,417.936252 158.749956,421.842463 147.656151,421.842463 C136.562345,421.842463 127.109315,417.936252 119.296776,410.123713 C111.484237,402.311174 107.578026,392.936267 107.578026,381.998713 C107.578026,365.123628 112.968597,350.280027 123.749901,337.467463 L123.749901,339.342463 C123.749901,344.498738 125.468633,348.873695 128.906151,352.467463 C132.343668,356.061231 136.6405,357.858088 141.796776,357.858088 C146.796801,357.858088 150.898322,356.100293 154.101463,352.58465 C157.304604,349.069008 158.906151,344.654989 158.906151,339.342463 C158.906151,336.217447 158.593654,332.623733 157.968651,328.561213 C157.343647,324.498692 156.718654,321.295599 156.093651,318.951838 L155.156151,315.201838 Z" id="" transform="translate(157.617088, 373.561213) rotate(-17.000000) translate(-157.617088, -373.561213) "></path>
            <path d="M516.5,508.421875 C510.718721,508.421875 505.523461,506.820329 500.914062,503.617188 C496.304664,500.414046 492.984385,496.234401 490.953125,491.078125 L542.046875,491.078125 C540.015615,496.234401 536.695336,500.414046 532.085938,503.617188 C527.476539,506.820329 522.281279,508.421875 516.5,508.421875 L516.5,508.421875 Z M500.796875,470.6875 L495.640625,476.078125 L490.25,470.6875 L500.796875,460.140625 L511.578125,470.6875 L506.1875,476.078125 L500.796875,470.6875 Z M521.421875,470.6875 L532.203125,460.140625 L542.75,470.6875 L537.359375,476.078125 L532.203125,470.6875 L526.8125,476.078125 L521.421875,470.6875 Z M516.5,521.078125 C527.437555,521.078125 536.851523,517.132852 544.742188,509.242188 C552.632852,501.351523 556.578125,491.937555 556.578125,481 C556.578125,470.062445 552.632852,460.648477 544.742188,452.757812 C536.851523,444.867148 527.437555,440.921875 516.5,440.921875 C505.562445,440.921875 496.148477,444.867148 488.257812,452.757812 C480.367148,460.648477 476.421875,470.062445 476.421875,481 C476.421875,491.937555 480.367148,501.351523 488.257812,509.242188 C496.148477,517.132852 505.562445,521.078125 516.5,521.078125 L516.5,521.078125 Z M516.5,431.078125 C530.250069,431.078125 542.007764,435.960889 551.773438,445.726562 C561.539111,455.492236 566.421875,467.249931 566.421875,481 C566.421875,494.750069 561.539111,506.507764 551.773438,516.273438 C542.007764,526.039111 530.250069,530.921875 516.5,530.921875 C502.749931,530.921875 490.992236,526.039111 481.226562,516.273438 C471.460889,506.507764 466.578125,494.750069 466.578125,481 C466.578125,467.249931 471.460889,455.492236 481.226562,445.726562 C490.992236,435.960889 502.749931,431.078125 516.5,431.078125 L516.5,431.078125 Z" id=""></path>
            <path d="M4.5,-3.578125 C-1.28127891,-3.578125 -6.47653945,-5.17967148 -11.0859375,-8.3828125 C-15.6953355,-11.5859535 -19.0156148,-15.7655992 -21.046875,-20.921875 L30.046875,-20.921875 C28.0156148,-15.7655992 24.6953355,-11.5859535 20.0859375,-8.3828125 C15.4765395,-5.17967148 10.2812789,-3.578125 4.5,-3.578125 L4.5,-3.578125 Z M-11.203125,-41.3125 L-16.359375,-35.921875 L-21.75,-41.3125 L-11.203125,-51.859375 L-0.421875,-41.3125 L-5.8125,-35.921875 L-11.203125,-41.3125 Z M9.421875,-41.3125 L20.203125,-51.859375 L30.75,-41.3125 L25.359375,-35.921875 L20.203125,-41.3125 L14.8125,-35.921875 L9.421875,-41.3125 Z M4.5,9.078125 C15.4375547,9.078125 24.851523,5.13285195 32.7421875,-2.7578125 C40.632852,-10.648477 44.578125,-20.0624453 44.578125,-31 C44.578125,-41.9375547 40.632852,-51.351523 32.7421875,-59.2421875 C24.851523,-67.132852 15.4375547,-71.078125 4.5,-71.078125 C-6.43755469,-71.078125 -15.851523,-67.132852 -23.7421875,-59.2421875 C-31.632852,-51.351523 -35.578125,-41.9375547 -35.578125,-31 C-35.578125,-20.0624453 -31.632852,-10.648477 -23.7421875,-2.7578125 C-15.851523,5.13285195 -6.43755469,9.078125 4.5,9.078125 L4.5,9.078125 Z M4.5,-80.921875 C18.2500687,-80.921875 30.0077637,-76.0391113 39.7734375,-66.2734375 C49.5391113,-56.5077637 54.421875,-44.7500687 54.421875,-31 C54.421875,-17.2499313 49.5391113,-5.49223633 39.7734375,4.2734375 C30.0077637,14.0391113 18.2500687,18.921875 4.5,18.921875 C-9.25006875,18.921875 -21.0077637,14.0391113 -30.7734375,4.2734375 C-40.5391113,-5.49223633 -45.421875,-17.2499313 -45.421875,-31 C-45.421875,-44.7500687 -40.5391113,-56.5077637 -30.7734375,-66.2734375 C-21.0077637,-76.0391113 -9.25006875,-80.921875 4.5,-80.921875 L4.5,-80.921875 Z" id=""></path>
            <path d="M516.5,-3.578125 C510.718721,-3.578125 505.523461,-5.17967148 500.914062,-8.3828125 C496.304664,-11.5859535 492.984385,-15.7655992 490.953125,-20.921875 L542.046875,-20.921875 C540.015615,-15.7655992 536.695336,-11.5859535 532.085938,-8.3828125 C527.476539,-5.17967148 522.281279,-3.578125 516.5,-3.578125 L516.5,-3.578125 Z M500.796875,-41.3125 L495.640625,-35.921875 L490.25,-41.3125 L500.796875,-51.859375 L511.578125,-41.3125 L506.1875,-35.921875 L500.796875,-41.3125 Z M521.421875,-41.3125 L532.203125,-51.859375 L542.75,-41.3125 L537.359375,-35.921875 L532.203125,-41.3125 L526.8125,-35.921875 L521.421875,-41.3125 Z M516.5,9.078125 C527.437555,9.078125 536.851523,5.13285195 544.742188,-2.7578125 C552.632852,-10.648477 556.578125,-20.0624453 556.578125,-31 C556.578125,-41.9375547 552.632852,-51.351523 544.742188,-59.2421875 C536.851523,-67.132852 527.437555,-71.078125 516.5,-71.078125 C505.562445,-71.078125 496.148477,-67.132852 488.257812,-59.2421875 C480.367148,-51.351523 476.421875,-41.9375547 476.421875,-31 C476.421875,-20.0624453 480.367148,-10.648477 488.257812,-2.7578125 C496.148477,5.13285195 505.562445,9.078125 516.5,9.078125 L516.5,9.078125 Z M516.5,-80.921875 C530.250069,-80.921875 542.007764,-76.0391113 551.773438,-66.2734375 C561.539111,-56.5077637 566.421875,-44.7500687 566.421875,-31 C566.421875,-17.2499313 561.539111,-5.49223633 551.773438,4.2734375 C542.007764,14.0391113 530.250069,18.921875 516.5,18.921875 C502.749931,18.921875 490.992236,14.0391113 481.226562,4.2734375 C471.460889,-5.49223633 466.578125,-17.2499313 466.578125,-31 C466.578125,-44.7500687 471.460889,-56.5077637 481.226562,-66.2734375 C490.992236,-76.0391113 502.749931,-80.921875 516.5,-80.921875 L516.5,-80.921875 Z" id=""></path>
            <path d="M4.5,508.421875 C-1.28127891,508.421875 -6.47653945,506.820329 -11.0859375,503.617188 C-15.6953355,500.414046 -19.0156148,496.234401 -21.046875,491.078125 L30.046875,491.078125 C28.0156148,496.234401 24.6953355,500.414046 20.0859375,503.617188 C15.4765395,506.820329 10.2812789,508.421875 4.5,508.421875 L4.5,508.421875 Z M-11.203125,470.6875 L-16.359375,476.078125 L-21.75,470.6875 L-11.203125,460.140625 L-0.421875,470.6875 L-5.8125,476.078125 L-11.203125,470.6875 Z M9.421875,470.6875 L20.203125,460.140625 L30.75,470.6875 L25.359375,476.078125 L20.203125,470.6875 L14.8125,476.078125 L9.421875,470.6875 Z M4.5,521.078125 C15.4375547,521.078125 24.851523,517.132852 32.7421875,509.242188 C40.632852,501.351523 44.578125,491.937555 44.578125,481 C44.578125,470.062445 40.632852,460.648477 32.7421875,452.757812 C24.851523,444.867148 15.4375547,440.921875 4.5,440.921875 C-6.43755469,440.921875 -15.851523,444.867148 -23.7421875,452.757812 C-31.632852,460.648477 -35.578125,470.062445 -35.578125,481 C-35.578125,491.937555 -31.632852,501.351523 -23.7421875,509.242188 C-15.851523,517.132852 -6.43755469,521.078125 4.5,521.078125 L4.5,521.078125 Z M4.5,431.078125 C18.2500687,431.078125 30.0077637,435.960889 39.7734375,445.726562 C49.5391113,455.492236 54.421875,467.249931 54.421875,481 C54.421875,494.750069 49.5391113,506.507764 39.7734375,516.273438 C30.0077637,526.039111 18.2500687,530.921875 4.5,530.921875 C-9.25006875,530.921875 -21.0077637,526.039111 -30.7734375,516.273438 C-40.5391113,506.507764 -45.421875,494.750069 -45.421875,481 C-45.421875,467.249931 -40.5391113,455.492236 -30.7734375,445.726562 C-21.0077637,435.960889 -9.25006875,431.078125 4.5,431.078125 L4.5,431.078125 Z" id=""></path>
            <path d="M148.235563,83.7355629 C150.423074,83.7355629 152.219931,83.032445 153.626188,81.6261879 C155.032445,80.2199309 155.735563,78.4230739 155.735563,76.2355629 C155.735563,74.048052 155.032445,72.251195 153.626188,70.8449379 C152.219931,69.4386809 150.423074,68.7355629 148.235563,68.7355629 C146.048052,68.7355629 144.251195,69.4386809 142.844938,70.8449379 C141.438681,72.251195 140.735563,74.048052 140.735563,76.2355629 C140.735563,78.4230739 141.438681,80.2199309 142.844938,81.6261879 C144.251195,83.032445 146.048052,83.7355629 148.235563,83.7355629 L148.235563,83.7355629 Z M148.235563,128.735563 C150.423074,128.735563 152.219931,128.032445 153.626188,126.626188 C155.032445,125.219931 155.735563,123.423074 155.735563,121.235563 C155.735563,119.048052 155.032445,117.251195 153.626188,115.844938 C152.219931,114.438681 150.423074,113.735563 148.235563,113.735563 C146.048052,113.735563 144.251195,114.438681 142.844938,115.844938 C141.438681,117.251195 140.735563,119.048052 140.735563,121.235563 C140.735563,123.423074 141.438681,125.219931 142.844938,126.626188 C144.251195,128.032445 146.048052,128.735563 148.235563,128.735563 L148.235563,128.735563 Z M125.735563,106.235563 C127.923074,106.235563 129.719931,105.532445 131.126188,104.126188 C132.532445,102.719931 133.235563,100.923074 133.235563,98.7355629 C133.235563,96.548052 132.532445,94.751195 131.126188,93.3449379 C129.719931,91.9386809 127.923074,91.2355629 125.735563,91.2355629 C123.548052,91.2355629 121.751195,91.9386809 120.344938,93.3449379 C118.938681,94.751195 118.235563,96.548052 118.235563,98.7355629 C118.235563,100.923074 118.938681,102.719931 120.344938,104.126188 C121.751195,105.532445 123.548052,106.235563 125.735563,106.235563 L125.735563,106.235563 Z M103.235563,83.7355629 C105.423074,83.7355629 107.219931,83.032445 108.626188,81.6261879 C110.032445,80.2199309 110.735563,78.4230739 110.735563,76.2355629 C110.735563,74.048052 110.032445,72.251195 108.626188,70.8449379 C107.219931,69.4386809 105.423074,68.7355629 103.235563,68.7355629 C101.048052,68.7355629 99.251195,69.4386809 97.8449379,70.8449379 C96.4386809,72.251195 95.7355629,74.048052 95.7355629,76.2355629 C95.7355629,78.4230739 96.4386809,80.2199309 97.8449379,81.6261879 C99.251195,83.032445 101.048052,83.7355629 103.235563,83.7355629 L103.235563,83.7355629 Z M103.235563,128.735563 C105.423074,128.735563 107.219931,128.032445 108.626188,126.626188 C110.032445,125.219931 110.735563,123.423074 110.735563,121.235563 C110.735563,119.048052 110.032445,117.251195 108.626188,115.844938 C107.219931,114.438681 105.423074,113.735563 103.235563,113.735563 C101.048052,113.735563 99.251195,114.438681 97.8449379,115.844938 C96.4386809,117.251195 95.7355629,119.048052 95.7355629,121.235563 C95.7355629,123.423074 96.4386809,125.219931 97.8449379,126.626188 C99.251195,128.032445 101.048052,128.735563 103.235563,128.735563 L103.235563,128.735563 Z M160.657438,53.7355629 C163.313701,53.7355629 165.657428,54.7511778 167.688688,56.7824379 C169.719948,58.8136981 170.735563,61.1574246 170.735563,63.8136879 L170.735563,133.657438 C170.735563,136.313701 169.719948,138.657428 167.688688,140.688688 C165.657428,142.719948 163.313701,143.735563 160.657438,143.735563 L90.8136879,143.735563 C88.1574246,143.735563 85.8136981,142.719948 83.7824379,140.688688 C81.7511778,138.657428 80.7355629,136.313701 80.7355629,133.657438 L80.7355629,63.8136879 C80.7355629,61.1574246 81.7511778,58.8136981 83.7824379,56.7824379 C85.8136981,54.7511778 88.1574246,53.7355629 90.8136879,53.7355629 L160.657438,53.7355629 Z" id="" transform="translate(133.235563, 106.235563) rotate(25.000000) translate(-133.235563, -106.235563) "></path>
            <path d="M256.604411,261.245036 L249.338786,254.682536 C241.057494,247.182498 235.041929,241.635679 231.291911,238.041911 C227.541892,234.448143 223.362246,229.995062 218.752848,224.682536 C214.14345,219.370009 210.979419,214.56537 209.260661,210.268473 C207.541902,205.971577 206.682536,201.557558 206.682536,197.026286 C206.682536,189.369997 209.299697,182.885687 214.534098,177.573161 C219.768499,172.260634 226.291872,169.604411 234.104411,169.604411 C243.166956,169.604411 250.666881,173.12 256.604411,180.151286 C262.54194,173.12 270.041865,169.604411 279.104411,169.604411 C286.91695,169.604411 293.440322,172.260634 298.674723,177.573161 C303.909124,182.885687 306.526286,189.369997 306.526286,197.026286 C306.526286,203.120066 304.495056,209.448128 300.432536,216.010661 C296.370015,222.573193 291.955997,228.276261 287.190348,233.120036 C282.424699,237.96381 274.65134,245.229362 263.870036,254.916911 L256.604411,261.245036 Z" id="" transform="translate(261.643473, 222.104411) rotate(18.000000) translate(-261.643473, -222.104411) "></path>
            <path d="M554.5,263 C556.687511,263 558.484368,262.296882 559.890625,260.890625 C561.296882,259.484368 562,257.687511 562,255.5 C562,253.312489 561.296882,251.515632 559.890625,250.109375 C558.484368,248.703118 556.687511,248 554.5,248 C552.312489,248 550.515632,248.703118 549.109375,250.109375 C547.703118,251.515632 547,253.312489 547,255.5 C547,257.687511 547.703118,259.484368 549.109375,260.890625 C550.515632,262.296882 552.312489,263 554.5,263 L554.5,263 Z M534.578125,278 C536.609385,278 538.36718,277.296882 539.851562,275.890625 C541.335945,274.484368 542.078125,272.687511 542.078125,270.5 C542.078125,268.312489 541.335945,266.515632 539.851562,265.109375 C538.36718,263.703118 536.609385,263 534.578125,263 C532.546865,263 530.78907,263.703118 529.304688,265.109375 C527.820305,266.515632 527.078125,268.312489 527.078125,270.5 C527.078125,272.687511 527.820305,274.484368 529.304688,275.890625 C530.78907,277.296882 532.546865,278 534.578125,278 L534.578125,278 Z M512.078125,267.921875 L512.078125,258.078125 L497.078125,258.078125 L497.078125,243.078125 L487,243.078125 L487,258.078125 L472,258.078125 L472,267.921875 L487,267.921875 L487,282.921875 L497.078125,282.921875 L497.078125,267.921875 L512.078125,267.921875 Z M562,233 C564.656263,233 566.99999,234.015615 569.03125,236.046875 C571.06251,238.078135 572.078125,240.421862 572.078125,243.078125 L572.078125,282.921875 C572.078125,285.578138 571.06251,287.921865 569.03125,289.953125 C566.99999,291.984385 564.656263,293 562,293 L472,293 C469.343737,293 467.00001,291.984385 464.96875,289.953125 C462.93749,287.921865 461.921875,285.578138 461.921875,282.921875 L461.921875,243.078125 C461.921875,240.421862 462.93749,238.078135 464.96875,236.046875 C467.00001,234.015615 469.343737,233 472,233 L562,233 Z" id="" transform="translate(519.460938, 278.000000) rotate(-31.000000) translate(-519.460938, -278.000000) "></path>
            <path d="M42.5,263 C44.6875109,263 46.484368,262.296882 47.890625,260.890625 C49.296882,259.484368 50,257.687511 50,255.5 C50,253.312489 49.296882,251.515632 47.890625,250.109375 C46.484368,248.703118 44.6875109,248 42.5,248 C40.3124891,248 38.515632,248.703118 37.109375,250.109375 C35.703118,251.515632 35,253.312489 35,255.5 C35,257.687511 35.703118,259.484368 37.109375,260.890625 C38.515632,262.296882 40.3124891,263 42.5,263 L42.5,263 Z M22.578125,278 C24.6093852,278 26.3671801,277.296882 27.8515625,275.890625 C29.3359449,274.484368 30.078125,272.687511 30.078125,270.5 C30.078125,268.312489 29.3359449,266.515632 27.8515625,265.109375 C26.3671801,263.703118 24.6093852,263 22.578125,263 C20.5468648,263 18.7890699,263.703118 17.3046875,265.109375 C15.8203051,266.515632 15.078125,268.312489 15.078125,270.5 C15.078125,272.687511 15.8203051,274.484368 17.3046875,275.890625 C18.7890699,277.296882 20.5468648,278 22.578125,278 L22.578125,278 Z M0.078125,267.921875 L0.078125,258.078125 L-14.921875,258.078125 L-14.921875,243.078125 L-25,243.078125 L-25,258.078125 L-40,258.078125 L-40,267.921875 L-25,267.921875 L-25,282.921875 L-14.921875,282.921875 L-14.921875,267.921875 L0.078125,267.921875 Z M50,233 C52.6562633,233 54.9999898,234.015615 57.03125,236.046875 C59.0625102,238.078135 60.078125,240.421862 60.078125,243.078125 L60.078125,282.921875 C60.078125,285.578138 59.0625102,287.921865 57.03125,289.953125 C54.9999898,291.984385 52.6562633,293 50,293 L-40,293 C-42.6562633,293 -44.9999898,291.984385 -47.03125,289.953125 C-49.0625102,287.921865 -50.078125,285.578138 -50.078125,282.921875 L-50.078125,243.078125 C-50.078125,240.421862 -49.0625102,238.078135 -47.03125,236.046875 C-44.9999898,234.015615 -42.6562633,233 -40,233 L50,233 Z" id="" transform="translate(7.460938, 278.000000) rotate(-31.000000) translate(-7.460938, -278.000000) "></path>
            <path d="M364,305.921875 C376.500063,305.921875 387.124956,310.335893 395.875,319.164062 C404.625044,327.992232 409,338.578063 409,350.921875 L409,401.078125 C409,405.140645 407.51564,408.656235 404.546875,411.625 C401.57811,414.593765 398.06252,416.078125 394,416.078125 L364,416.078125 L364,406 L398.921875,406 L398.921875,401.078125 L379,401.078125 L379,361 L398.921875,361 L398.921875,350.921875 C398.921875,341.234327 395.523471,332.992221 388.726562,326.195312 C381.929654,319.398404 373.687548,316 364,316 C354.312452,316 346.070346,319.398404 339.273438,326.195312 C332.476529,332.992221 329.078125,341.234327 329.078125,350.921875 L329.078125,361 L349,361 L349,401.078125 L334,401.078125 C329.93748,401.078125 326.42189,399.593765 323.453125,396.625 C320.48436,393.656235 319,390.140645 319,386.078125 L319,350.921875 C319,338.578063 323.374956,327.992232 332.125,319.164062 C340.875044,310.335893 351.499937,305.921875 364,305.921875 L364,305.921875 Z" id=""></path>
            <path d="M401.764307,102.795557 C401.764307,96.0767737 404.068972,90.3737058 408.67837,85.6861823 C413.287768,80.9986589 418.951774,78.6549323 425.670557,78.6549323 C432.389341,78.6549323 438.092409,80.9986589 442.779932,85.6861823 C447.467456,90.3737058 449.811182,96.0767737 449.811182,102.795557 C449.811182,109.514341 447.467456,115.178347 442.779932,119.787745 C438.092409,124.397143 432.389341,126.701807 425.670557,126.701807 C418.951774,126.701807 413.287768,124.397143 408.67837,119.787745 C404.068972,115.178347 401.764307,109.514341 401.764307,102.795557 L401.764307,102.795557 Z M413.717432,148.733057 C413.717432,145.920543 414.693985,143.537755 416.64712,141.58462 C418.600255,139.631485 420.983043,138.654932 423.795557,138.654932 C426.608071,138.654932 428.951798,139.631485 430.826807,141.58462 C432.701817,143.537755 433.639307,145.920543 433.639307,148.733057 C433.639307,151.545571 432.701817,153.92836 430.826807,155.881495 C428.951798,157.83463 426.608071,158.811182 423.795557,158.811182 C420.983043,158.811182 418.600255,157.83463 416.64712,155.881495 C414.693985,153.92836 413.717432,151.545571 413.717432,148.733057 L413.717432,148.733057 Z M369.654932,130.686182 C369.654932,126.31116 371.217417,122.561198 374.342432,119.436182 C377.467448,116.311167 381.295535,114.748682 385.826807,114.748682 C390.201829,114.748682 393.951792,116.272105 397.076807,119.318995 C400.201823,122.365885 401.764307,126.15491 401.764307,130.686182 C401.764307,135.217455 400.201823,139.00648 397.076807,142.05337 C393.951792,145.10026 390.201829,146.623682 385.826807,146.623682 C381.295535,146.623682 377.467448,145.061198 374.342432,141.936182 C371.217417,138.811167 369.654932,135.061204 369.654932,130.686182 L369.654932,130.686182 Z" id="" transform="translate(419.693995, 128.693995) rotate(14.000000) translate(-419.693995, -128.693995) "></path>
            <path d="M308.8125,19.90625 L303.421875,-0.484375 L319.828125,-14.078125 L298.734375,-15.25 L291,-34.9375 L283.265625,-15.25 L261.9375,-14.078125 L278.578125,-0.484375 L273.1875,19.90625 L291,8.421875 L308.8125,19.90625 Z M331.078125,-4 C331.078125,-1.34373672 332.054678,0.999989844 334.007812,3.03125 C335.960947,5.06251016 338.265612,6.078125 340.921875,6.078125 L340.921875,26 C340.921875,28.6562633 339.945322,30.9999898 337.992188,33.03125 C336.039053,35.0625102 333.734388,36.078125 331.078125,36.078125 L250.921875,36.078125 C248.265612,36.078125 245.960947,35.0625102 244.007812,33.03125 C242.054678,30.9999898 241.078125,28.6562633 241.078125,26 L241.078125,6.078125 C243.890639,6.078125 246.234366,5.10157227 248.109375,3.1484375 C249.984384,1.19530273 250.921875,-1.18748594 250.921875,-4 C250.921875,-6.65626328 249.945322,-8.99998984 247.992188,-11.03125 C246.039053,-13.0625102 243.734388,-14.078125 241.078125,-14.078125 L241.078125,-34 C241.078125,-36.6562633 242.054678,-38.9999898 244.007812,-41.03125 C245.960947,-43.0625102 248.265612,-44.078125 250.921875,-44.078125 L331.078125,-44.078125 C333.734388,-44.078125 336.039053,-43.0625102 337.992188,-41.03125 C339.945322,-38.9999898 340.921875,-36.6562633 340.921875,-34 L340.921875,-14.078125 C338.265612,-14.078125 335.960947,-13.0625102 334.007812,-11.03125 C332.054678,-8.99998984 331.078125,-6.65626328 331.078125,-4 L331.078125,-4 Z" id=""></path>
            <path d="M308.8125,531.90625 L303.421875,511.515625 L319.828125,497.921875 L298.734375,496.75 L291,477.0625 L283.265625,496.75 L261.9375,497.921875 L278.578125,511.515625 L273.1875,531.90625 L291,520.421875 L308.8125,531.90625 Z M331.078125,508 C331.078125,510.656263 332.054678,512.99999 334.007812,515.03125 C335.960947,517.06251 338.265612,518.078125 340.921875,518.078125 L340.921875,538 C340.921875,540.656263 339.945322,542.99999 337.992188,545.03125 C336.039053,547.06251 333.734388,548.078125 331.078125,548.078125 L250.921875,548.078125 C248.265612,548.078125 245.960947,547.06251 244.007812,545.03125 C242.054678,542.99999 241.078125,540.656263 241.078125,538 L241.078125,518.078125 C243.890639,518.078125 246.234366,517.101572 248.109375,515.148438 C249.984384,513.195303 250.921875,510.812514 250.921875,508 C250.921875,505.343737 249.945322,503.00001 247.992188,500.96875 C246.039053,498.93749 243.734388,497.921875 241.078125,497.921875 L241.078125,478 C241.078125,475.343737 242.054678,473.00001 244.007812,470.96875 C245.960947,468.93749 248.265612,467.921875 250.921875,467.921875 L331.078125,467.921875 C333.734388,467.921875 336.039053,468.93749 337.992188,470.96875 C339.945322,473.00001 340.921875,475.343737 340.921875,478 L340.921875,497.921875 C338.265612,497.921875 335.960947,498.93749 334.007812,500.96875 C332.054678,503.00001 331.078125,505.343737 331.078125,508 L331.078125,508 Z" id=""></path>
        </g>
    </g>
</svg>
